<?xml version="1.0" encoding="utf-8"?>
<!-- Generator: Adobe Illustrator 21.1.0, SVG Export Plug-In . SVG Version: 6.00 Build 0)  -->
<svg version="1.1" id="Warstwa_1" xmlns="http://www.w3.org/2000/svg" xmlns:xlink="http://www.w3.org/1999/xlink" x="0px" y="0px"
	 viewBox="0 0 3000 5000" style="enable-background:new 0 0 3000 5000;" xml:space="preserve">
<style type="text/css">
	.st0{fill:#CBD49E;}
	.st1{fill:#CFD7A6;}
</style>
<g>
	<g>
		<path class="st0" d="M1562.8,1250.2c13.5-1.9,24.2,7.3,36.1,12.8c3.3,1.5,6.3,3.7,9.5,5.5c8.3,4.8,8.6,5,13.4-3.5
			c9.9-17.8,25.1-27.8,44.8-31.8c2.3-0.5,4.6-1,6.9-0.4c3.5,0.8,5.2,2.9,3.5,6.5c-0.7,1.5-1.5,3-2.5,4.3
			c-11.5,14.2-21.8,29.4-35.4,41.8c-6.5,6-11.4,12.8-14.1,21.4c-2.5,7.7-5.1,8.2-11.5,3.4c-6.4-4.9-12.9-9.4-20.9-11.2
			c-13.8-3.1-24.6-11.4-35.4-19.7c-6.3-4.9-12.6-9.8-18.8-14.8c-4.4-3.5-4.3-6.3,0.4-9.2C1545.9,1250.9,1553.8,1250.1,1562.8,1250.2
			z"/>
		<path class="st0" d="M1644.2,1147.8c-3,0-4.7-2.2-6.9-3.7c-17.6-12-33.1-26.7-49.6-40.1c-1.5-1.2-3.7-2.6-2.6-4.8
			c1.1-2.4,3.5-2.5,6.1-2.1c14.9,2.1,27.6,9.3,40.4,16.6c6.4,3.7,6.5,3.9,10.8-2.3c13.1-18.9,32.7-27.5,53.5-34.4
			c1.2-0.4,2.6-0.5,3.9-0.5c3.5,0,5.3,1.8,3.3,5c-2.7,4.5-5.9,8.9-9.2,13c-10.1,12.9-21.8,24.2-33.6,35.6
			c-4.5,4.3-9.8,8.1-11.5,14.8C1648.4,1146.8,1646.5,1147.8,1644.2,1147.8z"/>
		<path class="st1" d="M1395.2,1153.8c7.1-4.5,15.2-4.9,22.6-5c10.9-0.1,21.6-4.6,32.6-1c3.5,1.1,4.6-2.1,6.2-5
			c7.8-14.4,19.6-24.9,33.9-32.6c0.9-0.5,1.8-0.9,2.8-1.1c0.6-0.1,1.2,0.3,1.9,0.5c1.7,3.3-1.2,4.8-2.9,6.5
			c-8.2,8.2-16.3,16.5-23.5,25.7c-1.2,1.6-3.3,2.8-3.8,4.6c-2.4,8.6-8.5,9.7-16.2,9.5c-15.6-0.4-31.2-0.1-46.9-0.2
			C1399.8,1155.6,1397.3,1156.9,1395.2,1153.8z"/>
		<path class="st1" d="M1383.7,1225.5c7-2.3,11.8-0.6,16.4,1.2c5.3,2.2,8.5,1.4,11.3-3.9c4.1-7.8,10.6-13.6,17-19.4
			c4.4-4,5.4-4.2,12.4-4.4c1.1,2.5-0.9,3.7-2.3,4.9c-9.6,8.5-16.6,19.1-22.3,30.4c-1.8,3.5-4.3,4.6-7.1,3.4
			C1401,1234,1392.3,1231.7,1383.7,1225.5z"/>
		<path class="st1" d="M1259.7,1180.7c7.9,1,14.1,1.1,19.9,2.8c6,1.7,9-0.3,12.2-5.2c4.7-7.2,8.3-15.2,14.8-21.1
			c2.4-2.2,4.1-5.3,7.7-5.9c1.8,2.5-0.6,3.7-1.6,5.1c-6.6,9.6-11.9,19.9-17.4,30.2c-4.6,8.7-5,8.5-13.9,4.9
			c-3.7-1.5-7.5-2.6-11.2-4.1C1266.9,1186.2,1263.4,1185.3,1259.7,1180.7z"/>
		<path class="st1" d="M1416.2,1268.4c8.9-0.4,17.8-1.2,26.4,0.8c4.8,1.1,7.2-0.2,10-3.7c4-4.8,8.7-9.1,13.2-13.5
			c2.5-2.5,5.2-4.9,9.1-5.1c0.8,3.4-1.9,4.3-3.3,5.9c-5.8,6.3-12.6,11.8-17.3,19.2c-1.7,2.7-4.3,4.3-7.6,3.5c-9-2-18.2-3.3-27.4-4.4
			C1418.2,1270.9,1416.7,1270.6,1416.2,1268.4z"/>
		<path class="st1" d="M1302.4,1239c-3,8.1-6.7,15.7-10.2,23.5c-3.2,7.4-7.9,7.8-13.5,2.5c-1.4-1.3-2.6-2.8-3.8-4.1
			c1.8-3.4,3.7-1.1,5.3-0.7c4.7,1.1,7-0.4,9-5C1292.1,1248.9,1295.4,1242.4,1302.4,1239z"/>
		<path class="st1" d="M1172.1,1183.7c5.9-1.1,12-1.1,14.3-10.1c2.2,6.2,1.5,10.7-1.6,13.2
			C1180.5,1190.2,1176.5,1185.3,1172.1,1183.7z"/>
	</g>
</g>
</svg>
