<?xml version="1.0" encoding="utf-8"?>
<!-- Generator: Adobe Illustrator 21.1.0, SVG Export Plug-In . SVG Version: 6.00 Build 0)  -->
<svg version="1.1" id="Warstwa_1" xmlns="http://www.w3.org/2000/svg" xmlns:xlink="http://www.w3.org/1999/xlink" x="0px" y="0px"
	 viewBox="0 0 3000 5000" style="enable-background:new 0 0 3000 5000;" xml:space="preserve">
<style type="text/css">
	.st0{fill:#B6B69C;}
	.st1{fill:#C6C6B3;}
	.st2{fill:#D6D6C8;}
	.st3{fill:#EBEBE3;}
	.st4{fill:#EAEAE2;}
	.st5{fill:#C4C4AF;}
	.st6{fill:#C7C7B4;}
	.st7{fill:#CFCFBE;}
	.st8{fill:#E9E9E0;}
	.st9{fill:#E4E4DB;}
	.st10{fill:#CBCBB9;}
	.st11{fill:#CECEBD;}
	.st12{fill:#CCCCBA;}
	.st13{fill:#D3D3C4;}
	.st14{fill:#C9C9B6;}
	.st15{fill:#C9C9B7;}
	.st16{fill:#D2D2C2;}
	.st17{fill:#DEDED3;}
	.st18{fill:#E1E1D6;}
	.st19{fill:#ECECE5;}
</style>
<g>
	<g>
		<path class="st0" d="M1142.1,642.1c1.1,5.4-1.1,8.9-5.2,12.7c-7.6,6.9-14,15-21,22.6c-2.9,3.1-5.7,6.5-9.1,9
			c-16.3,11.7-29.7,26.5-42.9,41.4c-11,12.4-20.9,25.7-31.2,38.7c-3,3.8-5.4,7.9-6.9,12.9c-1.8,6.2-6.2,11.6-9.5,17.4
			c-1.2,2-2.8,3.9-3.4,6c-1.9,6.9-6.1,12.4-10.3,18c-2.8,3.7-5.4,7.6-8,11.4c-0.7,1.1-2.2,2.6-1.9,3.3c2.7,6.8-2.9,10.3-5.7,14.7
			c-8.7,13.4-17,27-23.6,41.5c-1.1,2.4-1.9,4.9-2.6,7.5c-0.1,0.5,1.4,1.8,2.2,1.9c0.7,0.1,1.6-1.1,2.5-1.5c1.1-0.4,2.4-0.6,3.6-0.8
			c0.1,1.5,0.4,3.1,0.2,4.6c-0.2,1.3-1.2,2.4-1.7,3.6c-0.4,0.9-1.1,1.9-1,2.8c3.1,19.4-6.7,36.6-9.4,55.1
			c-0.8,5.5-3.3,10.7-4.6,16.2c-0.4,1.8,0.1,3.8,0.3,5.7c1.8-0.3,3.8-0.2,5.4-1c2.1-0.9,3.8-2.5,5.7-3.8l0.1,0.1
			c-0.7,12.2-1.5,24.4-2,36.6c-0.2,5,0.1,9.9,0.2,14.9c0,2.7,1,4.5,4,4.6c3.8,0.1,4.3,2.2,3,5.3c-4.8,11.6-9.6,23.2-14.4,34.8
			c-0.8,1.8-1.6,3.6-2.2,5.5c-0.1,0.5,0.3,1.4,0.7,1.6c0.4,0.2,1.3-0.1,1.7-0.4c2-2,3.2-5.2,6.9-5c0.8,0.8,1.6,1.6,2.4,2.3
			c-1.2,6.8-2.3,13.6-3.6,20.3c-0.5,2.3-1.2,4.5,1.4,6.1c0.6,0.5,1.2,0.9,1.9,1.4c-0.4,2.3-0.8,4.5-1.3,6.8
			c-0.6,2.8-0.8,5.7-1.8,8.3c-1.4,4.1-1.6,4,3,4.9c-3.1,12.5-6.4,24.9-9.4,37.4c-2.2,9-4.1,18-6,27.1c-0.2,0.8,0.3,2.2,0.9,2.5
			c0.6,0.3,2,0,2.7-0.5c4.4-3.4,8.4-7.3,11.1-12.3c0.3-0.5,1.6-0.5,2.4-0.7c0.1,0.6,0.5,1.3,0.4,1.9c-1.2,5.1-2.5,10.3-3.8,15.4
			c-0.7,2.9-2.1,5.8-1.9,8.6c0.5,8.4-1.4,16.4-2.7,24.6c-1,3.4-2,6.8-2.9,10.2c-0.2,0.8,0.6,1.7,0.9,2.6c0.7-0.5,2-0.8,2.1-1.4
			c0.9-3.8,1.6-7.6,2.3-11.5c0.7-1.3,1.4-2.6,2.2-3.9c0.7,0.7,1.4,1.5,2.2,2.2c-1,3.9-2,7.9-3.1,11.8c-1.3,4.6,1.4,3.7,4,3.1
			c0.8,0.3,1.7,0.7,2.5,1c-0.5,5.9-0.4,11.9-1.8,17.6c-2.8,12.1-1.2,24.3-1.8,36.4c-0.3,0-0.6,0-0.9,0.2c-0.2,0.1-0.1,0.5-0.2,0.7
			c0.3-0.3,0.7-0.6,1-0.9c3-3.4,6.1-6.8,9.1-10.1c0.6-0.7,1.3-1.3,2-1.9c0.4,1.1,1,2.2,1,3.3c0,8.3-0.1,16.6-0.2,24.8
			c-2.1,3.2-4,6.4-2.9,10.4c0.1,0.2,0.6,0.5,0.7,0.4c3.2-2.5,3.7-6.2,4.2-10c0-0.3,0-0.6,0-1c0.7-1.3,1.3-2.7,2-4
			c1.2,0.1,2.4,0.1,3.7,0.2c-0.5,5.8-1.3,11.5-1.3,17.3c0,4.8,1,9.6,1.5,14.4c-1.2,3.7-2.7,7.3-3.6,11c-0.2,1,1.1,2.4,1.7,3.6
			c1.3-0.9,3.5-1.7,3.6-2.7c0.5-3.2,0.2-6.5,0.3-9.8c0.8-1.9,1.5-3.9,2.3-5.8l1,0l1,0c0,6.6,0,13.2,0.1,19.9c-0.3,2.6,1,4,3.5,4.3
			c-1.1,5.2-2.2,10.5-3.3,15.7c-0.1,1-0.4,1.9-0.3,2.9c0.1,0.7,0.7,1.4,1.1,2.1c0.5-0.3,1.2-0.6,1.5-1c0.6-1.1,1.1-2.3,1.6-3.5
			c1.1-3.6,2.3-7.2,3.4-10.9c0.8-2.5,1.6-4.9,2.4-7.4c0,0,1,0,1,0l1,0c-0.4,4.9-1,9.8-1.3,14.7c-0.4,6.1-1.7,12.1,0.6,18.5
			c1.6,4.4,0.8,9.8,1,14.7c-0.1,1.2-0.3,2.5-0.2,3.7c0,0.2,1.2,0.3,1.9,0.5c1.2,0,2.3,0.1,3.5,0.1c0.4,2.8,0.7,5.6,1.1,8.4
			c1.2-2.8,2.3-5.6,3.5-8.5c0.8,0,1.5,0,2.3,0c-0.8,6.8-1.6,13.7-2.3,20.5c-0.1,1.2,0.2,2.5,0.3,3.8c0.7-1,1.3-2,2-3
			c0.5-0.8,0.9-1.8,1.4-2.6c0.3-0.4,1-0.6,1.5-0.9c0.3,0.5,0.8,1,0.8,1.5c-0.1,7.6-0.2,15.2-0.3,22.7c-0.5,1.4-0.9,2.8-1.4,4.2
			c1.1-0.2,2.4-0.2,3.2-0.8c2-1.5,5-2.4,4-5.9c0.2-1.2,0.4-2.3,0.5-3.5c0.7,0,1.4,0,2.1,0c-0.2,4.7-0.3,9.4-0.5,14.1
			c-1.6,1.4-2.4,2.8-0.8,4.7c1-0.9,2.1-1.8,3-2.9c0.3-0.4,0.2-1.2,0.3-1.8c0.7-1.4,1.4-2.7,2.1-4.1c1.2,0,2.3,0.1,3.5,0.1
			c-1,8.8-2,17.6-2.8,26.5c-0.1,1.3,1.2,2.7,1.9,4c1.1-1,2.7-1.9,3.1-3.1c2.8-8.8,5.4-17.7,8.1-26.5c0.4-1.2,1.1-2.2,1.6-3.3
			c0.2,1.3,0.7,2.6,0.6,3.9c-0.9,8.2-1.9,16.4-2.8,24.6c-0.6,1.5-1.2,2.9-1.7,4.4c-1.5,4.6-1.4,4.6,4,5.6c-0.6,1.8-1.3,3.5-1.9,5.3
			c-0.5,1.5-1,3-1.6,4.4c-0.1,1-0.4,2-0.1,2.9c0.4,1.4,1.1,3.7,1.6,3.7c1.8,0,4-0.5,5.3-1.6c1.7-1.5,1-3.4-0.8-4.8
			c0.3-2.3,0.3-4.7,1.2-6.7c0.6-1.5,2.4-2.5,3.7-3.8c-0.2,1.6-0.6,3.1-0.6,4.7c-0.1,5.9,0,11.8,0,17.7c-0.7,5.6-0.7,5.6,3.6,4.1
			c0.5,0,1,0.1,1.5,0.1c0.1,2,0.3,4.1,0.4,6.1c0.8,0.6,1.6,1.1,2.3,1.7c0.1,1.3,0.1,2.6,0.4,3.9c0.2,1.1,0.7,2.2,1.1,3.3
			c0.9-0.7,1.9-1.4,2.8-2.2c0.5-0.4,0.6-1.2,1-1.7c0.6-0.6,1.3-1,2-1.5c0.1,0.6,0.5,1.3,0.4,1.9c-0.7,4.8-1.5,9.7-2.2,14.5
			c-3.7,4.4,2.5,4.1,3,6.5c1.3-0.8,3.2-1.2,3.7-2.4c1.5-3.3,2.5-6.8,3.6-10.2c0.7-0.7,1.3-1.3,2-2c0.5,0.1,0.9,0.1,1.4,0.1
			c0.1,6,0.2,11.9,0.4,17.9c-0.2,1-0.8,2.7-0.7,2.8c3.1,1.1,2.5-1.3,2.8-3c0-0.6,0.1-1.2,0.2-1.8c1.2,0,2.4,0,3.7,0
			c-0.2,6.1-0.4,12.1-0.6,18.2c-0.3,1.4-0.6,2.7-0.9,4.1c1.1,0,2.2,0,3.4-0.1c0.6,0,1.2-0.1,1.8-0.1c-0.2,11.3,1.9,22.3,3.5,33.5
			c1.6,11,1.9,22.5-0.7,33.7c-0.5,2.2-0.5,4.6-0.6,6.9c0,0.7,0.8,1.5,1.2,2.2c0.8-0.5,1.5-1.1,2.3-1.6c0.7-0.5,1.5-1,2.2-1.5
			c0.1,0.6,0.5,1.3,0.4,1.9c-0.3,2.3-0.1,5.2-1.4,6.7c-4.2,4.8-3.2,10.4-2.1,15.2c3.6,15,0.2,28.9-5.3,42.6
			c-4.3,10.8-9,21.5-12.2,32.6c-1.8,6.1-3.8,11.8-6.5,17.5c-1.7,3.6-3.8,4.3-6.9,4c-6.9-0.8-13.9-1.1-20.7-2.8
			c-8.3-2-16.6-1.2-24.8-0.8c-4.6,0.2-9.2,1.1-13.8,1.4c-26.8,2.2-53.6,4.8-78.6,15.9c-3.9,1.7-7.5,4.2-11.2,6.5
			c-1.4,0.9-3.3,2.3-3.3,3.6c-0.4,8.3-8.1,11.9-11.3,18.2c-6.9,13.5-11.5,27.6-7.2,43c2,7,0.6,13.1-2.8,19.1
			c-4.4,7.8-8.4,15.8-11.4,24.3c-3,8.5-3.5,17-2.7,25.6c0.9,10.1-1.4,19.1-6,27.8c-2.5,4.7-4.4,9.8-7.5,14.1c-4.3,6-5,13-6.1,19.8
			c-0.5,3,0.7,6.6,2,9.5c1.6,3.7,0.2,4.7-3,5.3c-7.4,1.5-15,2.5-21.7,6.7c-14.6,9.1-29.7,17.6-44,27.1c-9.5,6.3-17.3,14.7-22.4,25.1
			c-2.2,4.4-5,7.6-9.3,10c-6.1,3.3-12.1,7-18.1,10.6c-4,1.7-4,1.7-1.2,4.5c0.4,0.4,0.8,1,1.2,1.5c-10,7.1-20,14.3-30,21.4
			c-2.2,1.5-4.4,3-6.7,4.2c-16.4,8.2-33.1,15.7-49.1,24.7c-13,7.3-25.4,15.9-37.3,24.8c-15.7,11.8-30.7,24.4-45.9,36.8
			c-19.3,15.8-37.4,33-54.8,50.9c-29.4,30.4-58.9,60.7-88.6,90.8c-68.1,69-136.3,137.8-204.6,206.7c-12.6,12.7-24.9,25.8-38.3,37.5
			c-15.5,13.6-31.8,26.3-48.2,38.6c-22.9,17.2-48.2,30.7-72.9,45.1c-16.4,9.5-32.6,19.3-49,28.8c-4,2.3-8.3,3.9-12.5,5.8
			C2,1807.7,2,909.3,2,11c0-3-1.2-7.2,0.3-8.7C3.8,0.8,8,2,11,2c994,0,1988,0,2982,0c3,0,7.2-1.2,8.7,0.3c1.5,1.5,0.3,5.7,0.3,8.7
			c0,1105.7,0,2211.3,0,3317c-20.4-27.9-40.2-56.1-61.3-83.4c-13.6-17.6-28.7-34.1-43.7-50.5c-14.6-16-29.6-31.6-45.1-46.7
			c-21.4-20.9-43.1-41.5-65.3-61.6c-24.7-22.3-50.1-43.7-75.1-65.6c-13.8-12-27.2-24.4-41-36.4c-15.8-13.7-31.9-27-47.7-40.8
			c-10-8.7-19.6-17.9-29.6-26.8c-30.9-27.4-60.6-56.1-89.3-85.7c-15.7-16.2-30.7-33.2-46.3-49.6c-13.3-14-27.4-27.3-40.6-41.4
			c-16.3-17.5-32.1-35.5-48.1-53.3c-6.7-7.4-13.3-14.9-20.1-22.2c-20.2-21.7-38.3-45.1-54.7-69.8c-7.4-11.1-14.6-22.3-22.6-32.9
			c-11.5-15-18.6-32.2-25.2-49.6c-8.8-23.1-19.2-45.3-33.3-65.6c-5.1-7.3-10.7-14.5-16.8-21c-22.5-23.6-45.1-47.2-68.3-70.1
			c-10.9-10.7-23.3-19.8-35.1-29.4c-16.2-13.2-32.7-26.2-48.9-39.4c-9-7.4-17.8-15-26.6-22.5c-9.2-7.8-16.7-17.1-23.8-26.8
			c-1.4-1.9-2.2-4.4-3.9-5.7c-7.9-6.2-8.1-14.5-7.7-23.4c0.4-12,0.1-24,0.3-36c0.4-23.8-5-46.7-9-69.9c-2.8-16-10-30.3-17.4-44.3
			c-7-13.1-18.3-22.8-30-31.7c-7.9-6-16.6-11-25.1-16.1c-2.3-1.4-2.7-2.8-1.8-4.8c1-2.4,1.6-5.3,5.2-5.2l0.2,0.2
			c2.8,3.6,7,2.7,10,1.8c6.4-2.1,13-1.6,19.5-2.3c0.3,0.3,0.5,0.5,0.8,0.8c-1.1,1.6-2.1,3.2-3.2,4.8c2-0.3,4.4-0.1,6.1-1
			c3.5-1.8,6.6-4.4,10.1-6.3c1.6-0.9,3.7-1.4,5.5-1.4c2.9,0,4,2.5,2.3,4.9c-1.4,1.9-3.2,3.4-4.6,5.2c-0.9,1.3-4.8,1.2-2.4,3.8
			c0.8,0.9,3.9,0.7,5.2-0.1c4.5-2.8,8.6-6,12.8-9.2c1.8-1.4,3.3-3.3,5.1-4.6c0.6-0.4,2.4-0.3,2.7,0.2c0.6,0.9,1.1,2.7,0.6,3.3
			c-2.5,3.4-5.4,6.6-8.1,9.9c-0.5,0.6-0.8,1.4-1.3,2.1c1.1,0.2,2.3,0.9,3.3,0.7c5.3-1.4,9.1-5.2,13-8.9c0.7-0.7,2.3-0.5,3.4-0.7
			c-0.1,1.2,0,2.4-0.2,3.5c-0.1,0.6-0.9,0.9-1.3,1.5c-0.7,1.2-1.3,2.5-1.9,3.7c1.6-0.2,3.2-0.2,4.7-0.7c3.1-1,6.2-2.2,9.3-3.4
			c0.3,0.3,0.5,0.5,0.8,0.8c-1.8,7.5-7.4,12.2-12.6,17.1c-0.8,0.7-1.4,1.7-2.1,2.5c1.4,0.4,3.2,1.6,4.2,1.1c4.4-2,8.7-4.4,12.9-6.9
			c1.9-1.1,3.5-2.8,5.3-4.3c0,0,0.4,0.4,0.4,0.4c-0.5,8.1-4.7,14.3-10.2,19.8c-0.9,0.9-1.5,2.1-2.2,3.2c1.6,0.3,3.6,1.3,4.6,0.7
			c3.9-2.4,7.6-5.1,11-8c2.3-2,4.2-4.3,7.7-3.7c2.2,0.4,2.9,1.6,1.7,3.4c-1.3,1.9-2.9,3.6-4.5,5.3c-2.3,2.6-0.9,2.9,1.6,3.4
			c3.7,0.7,3.7,1.2,1.2,3.8c-0.7,0.7-1.6,1.2-2.4,1.8c-0.5,0.4-0.8,1-1.2,1.5c0.9,0.2,1.9,0.9,2.6,0.6c3.1-1.1,6.3-2.1,9.2-3.7
			c3.4-1.8,6.5-2.7,10.4-1.4c2.2,0.7,5.3,0.3,7.5-0.7c7.3-3.1,14.4-6.8,21.6-10.1c1.8-0.8,3.6-1.7,5.5-2c1.5-0.2,3.1,0.5,4.6,0.8
			c-1.1,1.1-2.2,2.1-3.3,3.2c-0.6,0.6-1.4,1.1-2,1.7c0.6,0.2,1.3,0.4,1.9,0.4c7.7,0.7,14.1-3.4,20.7-6.3c4.5-2,9-4,13.5-6l0.5,0.6
			c-0.1,0.6-0.3,1.3-0.4,1.9c-0.1,2-4.2,3-1.8,5.2c0.7,0.6,4.1-1.1,5.7-2.4c6.8-5.5,13.4-11.3,20-17.1c0.8,0.8,1.5,1.5,2.3,2.3
			c-1.9,5.3-5.7,8.8-10.1,11.9c-1.1,0.5-2.2,0.9-3.4,1.4c1.2,0.7,2.3,1.5,3.5,2.2c13.7,1.7,23.9-5.6,34-13.1
			c5.8-4.3,11.4-8.8,17-13.2c0.4,0.3,0.8,0.6,1.1,0.9c-3.4,5.2-6.9,10.5-10.3,15.7c-2.1,1.3-5.8,3.2-4,5.3c2,2.3,4.6-0.8,6.2-3
			c2.7-2.4,5.4-4.9,8.1-7.3c1.7-1.5,3.3-3.8,5.3-4.4c8-2.5,13.1-8.7,19.5-13.4c1.7-1.3,3.9-3,5.8-2.9c10.3,0.8,16.8-5.1,22.5-12.3
			c3.5-4.4,6.4-9.2,9.6-13.8c0.7-1,1.8-1.7,2.7-2.5c0.2,1.3,0.7,2.7,0.4,3.9c-1.3,6.1-2.9,12.2-4.4,18.3c-0.2,0.6-0.4,1.1-0.6,1.7
			c0.4-0.4,0.7-0.8,1.1-1.2c6-0.9,8.6-5.8,11.6-10.1c1.9-2.7,3.2-5.8,4.6-8.8c2.1-4.6,4.7-8.4,8.7-11.8c5.7-4.7,9-11.4,11.3-18.4
			c2.7-8.2,4.8-16.5,7.3-24.7c0.3-0.9,0.9-1.6,1.4-2.4c0.3,0.8,0.8,1.6,0.9,2.4c1.3,11.2,2.6,22.3,3.9,33.5c0.1,1,0.5,1.9,0.8,2.8
			c0.5-0.7,1.3-1.4,1.5-2.2c0.7-2.9,1.5-5.8,1.6-8.7c0.2-15,0.3-29.9,0-44.9c-0.1-5.9-1.6-11.8-2.3-17.7c-0.2-1.5,0-3,0-4.4
			c1.5,1,3.5,1.7,4.4,3.2c3.6,6,6.9,12.1,10.3,18.2c0.6,1.2,1.3,2.3,2,3.5c0.1,0.2,0.6,0.5,0.7,0.5c0.4-0.3,1-0.7,1-1
			c0-2,0-4-0.5-5.9c-1.7-6.4-3.7-12.7-5.4-19.1c-0.9-3.2-1.5-6.4-2.2-9.6c0.1-1,0.3-2,0.4-3c1.9,1.6,3.8,3.3,5.7,4.9
			c0.3,0.9,0.5,1.7,0.8,2.6c0,0,0.4,0,0.6-0.1c-0.3-1-0.6-2-0.9-3c-0.4-1.9-0.5-4-1.3-5.7c-7.1-14-14.3-28-21.5-42
			c2.1-0.4,5.6,0,2.8-3.9c0.4-16.5-5.9-31-14.2-44.7c-7.2-11.9-13.5-24.2-18.1-37.4c0.7,0,1.4,0,2.1,0c4.6,5.1,9.1,10.3,13.9,15.1
			c2.3,2.3,5.1,4.1,7.9,5.8c0.8,0.5,2.4,0.3,3.3-0.2c0.5-0.2,0.7-1.9,0.4-2.7c-0.7-2.2-1.8-4.2-2.7-6.3c-1.7-3.9-3.3-7.8-5-11.7
			c1.4,0,2.8-0.1,4.2-0.1c3.4,2.6,4.9,8,10.6,7.1c-2.4-3.4-4.6-6.9-7.2-10.1c-1.2-1.4-3.2-2.1-4.8-3.1c-3.1-4.3-5.6-9.2-9.4-12.7
			c-6.4-5.8-10.3-12.8-13.5-20.6c-2.1-5.2-5-10.2-6.9-15.4c-2.2-5.9-3.5-12.1-5.6-18.1c-1.8-5-1.5-9.8-0.3-14.7
			c0.5-2.3,0.7-4.6,1.5-6.8c6-17.5,1.1-33.2-8.2-48c-0.2-0.3-0.5-0.5-0.6-0.8c-7.1-10.4-6.8-10,3-18.5c7.7-6.7,15.8-13.1,21.4-22
			c8.7-13.6,14.7-27.5,10.4-44c-0.7-2.8,1-4.7,3.9-4.1c3.2,0.7,6.3,2,9.5,2.9c5.3,1.5,7.4-0.2,6-5.1c-2.4-8.6-4.7-17.3-8.2-25.6
			c-4-9.6-12.9-14.8-20.8-20.8c-6.9-5.2-13.6-10.6-20.3-16c-1.7-1.4-3.2-3.4-4.4-5.4c-2.7-4.6-2.1-6.3,3-8.1
			c9.1-3.2,18.3-5.5,28.1-6.3c9.8-0.8,19.6-3.2,29.2-5.5c3.7-0.9,7-3.6,10.3-5.8c2.4-1.7,3.9-4.4,7.4-4.5c1.3,0,2.9-1.6,3.8-2.9
			c7.6-10.5,15.6-20.7,19.4-33.4c1.5-5.1,2.9-10.2,2.6-15.6c-0.1-2.3-0.3-4.8,0.5-6.9c2.4-6.7,1.1-11.5-5.6-14.8
			c-1.4-0.7-2.3-3.1-2.6-4.9c-1.5-8.9-6.9-15.5-12.2-22.4c-13.4-17.3-30.4-30.3-48-43.1c-18.5-13.5-37.4-26.8-51.5-45.3
			c-3.4-4.5-6.8-9.1-9.1-14.1c-2.1-4.5-6.9-10.2,1.9-13.6c3.4-7.6,6.6-15.3,10.1-22.8c3.5-7.4,5.3-15.1,4.4-23.2
			c-0.5-4.2-1.3-8.5-2.7-12.5c-5.3-15.1-15.4-26.8-26.6-37.9c-1.6-1.6-3-3.5-4.7-5.1c-3.7-3.3-3.8-7-2.7-11.7
			c2.1-9.7,4.6-19.6,4.5-29.4c-0.3-18.9-3.3-37.4-12.3-54.7c-5-9.6-7.7-20.4-11.9-30.5c-3.7-8.9-7.4-17.8-11.9-26.2
			c-6.1-11.4-12.5-22.7-19.4-33.6c-11-17.4-22.9-34.3-33.7-51.8c-14.6-23.8-28.6-48-42.8-72c-0.8-1.4-1.6-2.9-2.3-4.4
			c-1.8-4.3-1.6-6.1,2.3-8.4c28.5-16.6,44.9-43.6,61.5-70.6c10.4-16.8,18-34.8,24.3-53.4c2.4-7.1,3-14.9,4.7-22.3
			c1.8-8.4,4.1-16.7,5.8-25.2c1.1-5.2,1.7-10.4,2.2-15.7c0.3-3,0.3-5.5,2.9-8c7.1-6.8,8.5-16.4,10.5-25.3c1.7-7.7-2.3-15.1-6.7-21.4
			c-6.5-9.3-14.2-17.6-24.3-23.2c-0.6-0.3-1.3-0.5-1.7-1c-7.6-9.6-18-6.3-27.5-5.6c-5.2,0.4-10.2,2.6-15.3,4c-1.3,0.3-2.5,1-3.8,1
			c-18.9,0.7-37.9,2.4-56.7,1.7c-11.2-0.4-22.5-1.2-33.8-1.2c-4.6,0-9.2,1.1-13.8,1.3c-4.6,0.1-9.2-0.3-13.8-0.6
			c-3.3-0.2-6.9-1.4-9.8-0.6c-9.8,2.9-19.1,0.5-28.5-1.4c-2.3-0.4-4.6-0.6-6.9-0.8c-9.5-0.8-19.1-1.6-28.7-2.4
			c-0.7-0.1-1.5,0-1.9-0.3c-6.9-6.2-15.2-3.1-22.9-3.1c-5.1,0-10.2,2.3-15.2-1.6c-1.5-1.1-5.1,0.1-7.6,0.9
			c-8.6,2.7-17.1,5.4-25.5,8.6c-7.5,2.8-15.2,2.9-22.5,0.8c-13.3-3.8-26.7-4.6-40.3-5.2c-4.2-0.2-8.9-0.5-12.6-2.4
			c-22.6-11.4-47-18.2-70.5-27.2c-5-1.9-9.9-3.9-14.9-5.8c-0.8-0.3-1.9,0.1-2.8,0.1c0.5,1.1,0.6,2.6,1.4,3.1
			c9.2,6.4,18.6,12.7,27.9,19c3.9,2.6,7.9,5,11.7,7.6c0.6,0.4,0.6,1.7,0.6,2.5c0,0.2-1.3,0.9-1.6,0.7c-9.3-5.3-19.6-2.3-29.3-3.7
			c-18.9-2.6-37.9-0.7-56.8-2.1c-18.2-1.3-36.2-3.8-54.4-5.3c-9.6-0.8-19.3-0.3-29-0.6c-3.9-0.1-8,0.8-11.2-2.8
			c-0.5-0.6-1.8-0.8-2.8-0.8c-13.6,0-27.1-1.5-40.7,2c-19.1,5-36.5,14-54.7,21.3c-19.7,7.9-39.7,15-59.4,23
			c-13.6,5.5-26.7,11.8-40.2,17.6c-7.3,3.1-14.8,5.8-22.2,8.6c-1.5,0.6-3.5,1.4-4.8,0.8c-6.4-2.7-11.7,0.5-17.1,2.7
			c-17.4,7.3-34.8,14.9-52.1,22.5c-1.2,0.5-2.8,0.9-3.5,1.9c-4.7,6.5-12.3,8.8-18.6,13c-3.4,2.3-7.2,3.7-8.3,8.4
			c-0.4,1.6-2.7,2.8-4.3,3.9c-11.8,8.6-23.9,16.9-35.5,25.8c-5.5,4.2-10.2,9.5-15.3,14.2c0.1,0.7,0.3,1.4,0.4,2.1l0.1,0
			C1142,639.4,1142,640.8,1142.1,642.1z M951.2,1088.9c-0.2-0.3-0.4-0.8-0.5-0.8c-0.6,0.1-1.2,0.4-1.7,0.7c0.2,0.3,0.4,0.8,0.6,0.7
			C950.1,1089.4,950.7,1089.1,951.2,1088.9z"/>
		<path class="st1" d="M963.8,1130c-4.7-0.8-4.5-0.8-3-4.9c0.9-2.6,1.2-5.5,1.8-8.3c0.9-0.4,1.7-0.9,2.5-1.3c1-0.6,2.3-3.7,2.7,0.1
			C968.4,1120.8,967.1,1125.7,963.8,1130z"/>
		<path class="st2" d="M1076,1544c-1.2,3.4-2.1,6.9-3.6,10.2c-0.5,1.1-2.4,1.6-3.7,2.4c-0.5-2.4-6.7-2.1-3-6.5
			C1068.9,1547.8,1070.6,1542.7,1076,1544z"/>
		<path class="st3" d="M2272.6,1725.9c1.6,1,3.7,1.7,4.8,3.1c2.6,3.2,4.8,6.7,7.2,10.1c-5.7,0.8-7.2-4.5-10.6-7.1
			c-1.4-1.9-2.8-3.8-4.3-5.7C2270.8,1726.1,2271.7,1726,2272.6,1725.9z"/>
		<path class="st1" d="M964.2,1232.2c-0.7-0.7-1.4-1.5-2.2-2.2c1.6-5.7,3.2-11.3,4.9-17c0.2-0.8,1.4-1.2,2.1-1.8
			c0.3,0.8,1.1,1.8,0.9,2.4C968.2,1219.9,966.2,1226,964.2,1232.2z"/>
		<path class="st4" d="M985.8,1347.9c0,3.3,0.3,6.6-0.3,9.8c-0.2,1.1-2.4,1.8-3.6,2.7c-0.6-1.2-2-2.6-1.7-3.6
			c0.9-3.7,2.3-7.3,3.6-11C984.4,1346.5,985.1,1347.2,985.8,1347.9z"/>
		<path class="st1" d="M2282.3,1814.1c2.8,3.9-0.6,3.5-2.8,3.9c-1.8-2.6-3.7-5.1-5.4-7.8c-0.4-0.6,0.3-1.8,0.5-2.7
			c0.8,0.4,1.7,0.6,2.3,1.2C2278.8,1810.4,2280.5,1812.3,2282.3,1814.1z"/>
		<path class="st5" d="M1014.4,1416c-0.8,0-1.5,0-2.3,0c0.5-2.9,0.9-5.9,1.6-8.7c0.4-1.6-0.5-4.5,2.6-4c0.6,0.1,1.2,3,0.9,4.4
			C1016.7,1410.6,1015.4,1413.3,1014.4,1416z"/>
		<path class="st6" d="M1045.6,1498.1c-5.4-1-5.5-1-4-5.6c0.5-1.5,1.1-2.9,1.7-4.4C1048.2,1492.3,1048.2,1492.3,1045.6,1498.1z"/>
		<path class="st7" d="M1048.1,1508c1.8,1.3,2.5,3.3,0.8,4.8c-1.3,1.1-3.5,1.6-5.3,1.6c-0.5,0-1.3-2.4-1.6-3.7
			c-0.2-0.9,0.1-1.9,0.1-2.9C1044.1,1507.9,1046.1,1508,1048.1,1508z"/>
		<path class="st8" d="M959.9,1234c-0.7,3.8-1.4,7.7-2.3,11.5c-0.1,0.6-1.4,0.9-2.1,1.4c-0.3-0.9-1.1-1.8-0.9-2.6
			c0.8-3.4,1.9-6.8,2.9-10.2C958.3,1234,959.1,1234,959.9,1234z"/>
		<path class="st9" d="M977.9,1318c0,0.3,0,0.6,0,1c-0.4,3.7-1,7.4-4.2,10c-0.1,0.1-0.6-0.2-0.7-0.4c-1.1-4,0.7-7.3,2.9-10.4
			C976.6,1318,977.3,1318,977.9,1318z"/>
		<path class="st10" d="M1085.8,1558.1c-1.2,0-2.4,0-3.7,0c0.4-3.6-2-8.1,2.8-10.5C1085.3,1551.1,1085.6,1554.6,1085.8,1558.1z"/>
		<path class="st11" d="M1026.1,1452c-0.7,0-1.4,0-2.1,0c0.5-2.8,0.8-5.6,1.4-8.4c0.2-0.8,1.1-1.5,1.6-2.2c0.3,0.8,0.9,1.7,0.8,2.5
			C1027.5,1446.6,1026.8,1449.3,1026.1,1452z"/>
		<path class="st12" d="M1002,1364c0,0-1,0-1,0s-1,0-1,0c0.2-2.3,0.3-4.5,0.7-6.7c0.2-0.7,1.3-1.3,2-1.9c0.4,0.8,1.2,1.6,1.1,2.3
			C1003.5,1359.8,1002.7,1361.9,1002,1364z"/>
		<path class="st13" d="M1023.5,1455.6c1,3.5-2,4.5-4,5.9c-0.8,0.6-2.1,0.5-3.2,0.8c0.5-1.4,1-2.8,1.4-4.2
			C1019.7,1457.2,1021.6,1456.4,1023.5,1455.6z"/>
		<path class="st14" d="M967.6,1248.1c-0.8-0.3-1.7-0.7-2.5-1c0.6-2.2,1-4.4,1.8-6.5c0.2-0.7,1.4-1,2.2-1.4c0.3,0.9,0.9,1.9,0.8,2.6
			C969.2,1244,968.4,1246,967.6,1248.1z"/>
		<path class="st14" d="M1007.6,1416.1c-1.2,0-2.3-0.1-3.5-0.1c-0.1-1.4-0.1-2.8-0.2-4.1c0.6-0.7,1.3-1.4,1.9-2
			c0.6-0.6,1.1-1.3,1.6-1.9c0.2,0.5,0.5,1.1,0.5,1.6C1007.8,1411.7,1007.7,1413.9,1007.6,1416.1z"/>
		<path class="st12" d="M1089.6,1580.2c-0.6,0-1.2,0.1-1.8,0.1c-1.1,0-2.2,0-3.4,0.1c0.3-1.4,0.6-2.7,0.9-4.1
			C1088,1576.1,1090.3,1576.5,1089.6,1580.2z"/>
		<path class="st15" d="M964.2,1082.2c-0.8-0.8-1.6-1.6-2.4-2.3c0.5-1.5,0.8-3.1,1.5-4.5c0.4-0.8,1.3-1.3,1.9-1.9
			c0.3,0.9,0.9,1.8,0.7,2.5C965.6,1078.1,964.9,1080.2,964.2,1082.2z"/>
		<path class="st16" d="M2296.1,1861.2c-0.1,1-0.3,2-0.4,3c-1-1.2-2.5-2.2-2.9-3.6c-0.3-1.1,0.6-2.6,0.9-3.9
			c0.8,1.2,1.6,2.3,2.4,3.6C2296.3,1860.5,2296.1,1860.9,2296.1,1861.2z"/>
		<path class="st17" d="M739.9,2090c-0.4-0.5-0.7-1-1.2-1.5c-2.8-2.8-2.8-2.8,1.2-4.5C743.4,2087.7,743.4,2087.7,739.9,2090z"/>
		<path class="st6" d="M2130.2,2016.2c-0.8-0.8-1.5-1.5-2.3-2.3c1.8-1.6,3.5-3.1,5.3-4.7C2134.8,2012.7,2132.4,2014.4,2130.2,2016.2
			z"/>
		<path class="st18" d="M2164.2,2024.3c-1.6,2.1-4.2,5.2-6.2,3c-1.8-2,1.9-3.9,4-5.3C2162.7,2022.8,2163.5,2023.5,2164.2,2024.3z"/>
		<path class="st6" d="M2269.8,1726.2c1.4,1.9,2.8,3.8,4.3,5.7c-1.4,0-2.8,0.1-4.2,0.1C2267.5,1730.1,2267.3,1728.2,2269.8,1726.2z"
			/>
		<path class="st10" d="M990,1342l-1,0l-1,0c0-1-0.3-2.1,0.1-2.9c0.5-0.9,1.5-1.4,2.4-2.1c0.3,0.8,1,1.7,0.9,2.5
			C991.3,1340.4,990.5,1341.2,990,1342z"/>
		<path class="st9" d="M994.3,1382.3c-0.5,1.2-0.9,2.4-1.6,3.5c-0.3,0.5-1,0.7-1.5,1c-0.4-0.7-1-1.4-1.1-2.1
			c-0.1-0.9,0.2-1.9,0.3-2.9C991.7,1382,993,1382.1,994.3,1382.3z"/>
		<path class="st19" d="M1056,1524c-4.3,1.5-4.3,1.5-3.6-4.1c1.1,0,2.2,0,3.4,0C1055.9,1521.3,1055.9,1522.6,1056,1524z"/>
		<path class="st13" d="M1028.1,1466.1c-0.1,0.6,0,1.4-0.3,1.8c-0.9,1-2,1.9-3,2.9c-1.6-1.9-0.8-3.4,0.8-4.7
			C1026.5,1466.1,1027.3,1466.1,1028.1,1466.1z"/>
		<path class="st14" d="M1081.9,1559.9c-0.3,1.6,0.3,4.1-2.8,3c-0.1,0,0.4-1.8,0.7-2.8C1080.5,1560,1081.2,1559.9,1081.9,1559.9z"/>
		<path class="st10" d="M993.6,1366.1c-2.5-0.3-3.8-1.6-3.5-4.3C992.6,1362.2,994.3,1363.2,993.6,1366.1z"/>
		<path class="st12" d="M1033.6,1462.2c-1.2,0-2.3-0.1-3.5-0.1c0.4-1.1,0.9-2.2,1.3-3.3C1032.2,1459.9,1032.9,1461,1033.6,1462.2z"
			/>
		<path class="st14" d="M983.6,1314.1c-1.2-0.1-2.4-0.1-3.7-0.2c0.7-1.1,1.5-2.2,2.2-3.4C982.6,1311.8,983.1,1313,983.6,1314.1z"/>
		<path class="st10" d="M2252.1,1732c-0.7,0-1.4,0-2.1,0c-0.4-0.9-1.1-2.7-1.1-2.7C2251.8,1727.9,2251.6,1730.4,2252.1,1732z"/>
		<path class="st9" d="M2120.2,2031.7c-1.2-0.7-2.3-1.5-3.5-2.2c1.1-0.5,2.2-0.9,3.4-1.4C2120.1,2029.3,2120.1,2030.5,2120.2,2031.7
			z"/>
		<path class="st1" d="M1056,1524c-0.1-1.4-0.1-2.7-0.2-4.1c0.8,0.2,2.2,0.4,2.2,0.7c0.1,1.1-0.2,2.3-0.4,3.5
			C1057,1524.1,1056.5,1524,1056,1524z"/>
		<path class="st8" d="M1003.9,1411.9c0.1,1.4,0.1,2.8,0.2,4.1c-0.7-0.2-1.9-0.3-1.9-0.5c-0.1-1.2,0.1-2.5,0.2-3.7
			C1002.9,1411.9,1003.4,1411.9,1003.9,1411.9z"/>
		<path class="st0" d="M1905.5,1997.5c0.2-0.3,0.4-0.7,0.6-0.7c0.9-0.1,1.7-0.2,2.6-0.2c-0.8,0.6-1.6,1.2-2.4,1.8
			C1906,1998,1905.8,1997.8,1905.5,1997.5z"/>
		<path class="st0" d="M2174.4,2002.4c-0.7,1.3-1.4,2.6-2.1,3.9c-0.4-0.3-0.7-0.6-1.1-0.9c0.9-1.2,1.7-2.4,2.6-3.6L2174.4,2002.4z"
			/>
		<path class="st0" d="M2103.8,2025.8c0.6-0.5,1.3-1,2-1.4c0.1,0,0.6,0.6,0.9,0.9c-0.8,0.4-1.5,0.7-2.3,1.1
			C2104.3,2026.4,2103.8,2025.8,2103.8,2025.8z"/>
		<path class="st14" d="M1142.1,642.1c-0.1-1.3-0.1-2.7-0.2-4C1145.5,639.3,1144,640.7,1142.1,642.1z"/>
		<path class="st0" d="M2077,2030.8c0.3-0.1,0.6-0.2,0.9-0.3c0.1,0.4,0.1,0.7,0.2,1.1c-0.3,0-0.6,0-0.9-0.2
			C2077.1,2031.3,2077.1,2031,2077,2030.8z"/>
		<polygon class="st14" points="1146.5,636.9 1147,636.8 1147,637.2 		"/>
		<path class="st14" d="M1141.8,638.1c-0.1-0.7-0.3-1.4-0.4-2.1C1141.6,636.7,1141.7,637.4,1141.8,638.1z"/>
		<path class="st1" d="M1060.3,1531.9c-0.8-0.6-1.6-1.1-2.3-1.7C1058.7,1530.8,1059.5,1531.3,1060.3,1531.9z"/>
		<path class="st14" d="M1079.5,1542.2c-0.5,0-0.9-0.1-1.4-0.1c0.3-0.4,0.6-0.8,0.9-1.2C1079.1,1541.3,1079.3,1541.7,1079.5,1542.2z
			"/>
		<path class="st1" d="M963.8,1110c-0.6-0.5-1.2-0.9-1.9-1.4C962.6,1109.1,963.2,1109.6,963.8,1110z"/>
		<path class="st0" d="M1906.3,1998.3c-0.7,0.6-1.5,1.2-2.2,1.8l-0.2-0.2c0.5-0.8,1.1-1.6,1.6-2.4
			C1905.8,1997.8,1906,1998,1906.3,1998.3z"/>
		<path class="st0" d="M1933.5,1999.5c0.7-0.1,1.3-0.3,2-0.4c-0.4,0.4-0.8,0.8-1.2,1.2C1934,2000,1933.8,1999.8,1933.5,1999.5z"/>
		<path class="st0" d="M2173.8,2001.8c0.4-0.4,0.7-0.8,1.1-1.2c-0.2,0.6-0.3,1.2-0.5,1.8C2174.4,2002.4,2173.8,2001.8,2173.8,2001.8
			z"/>
		<path class="st0" d="M1998.1,2006.1c0.2-0.3,0.5-0.7,0.7-1c0,0.2,0,0.5-0.1,0.5c-0.2,0.2-0.5,0.2-0.7,0.4L1998.1,2006.1z"/>
		<path class="st0" d="M964,982c0.3-0.3,0.7-0.6,1-0.9c0,0.2,0,0.6-0.1,0.7C964.6,982,964.3,982,964,982L964,982z"/>
		<path class="st0" d="M2003.9,2017.9c0.4-0.3,0.8-0.6,1.2-0.9c-0.3,0.4-0.6,0.8-0.9,1.3C2004.3,2018.2,2003.9,2017.9,2003.9,2017.9
			z"/>
		<path class="st0" d="M1998,2006c-0.6,0.8-1.1,1.5-1.7,2.3c-0.3-0.3-0.5-0.5-0.8-0.8c0.9-0.5,1.7-1,2.6-1.4
			C1998.1,2006.1,1998,2006,1998,2006z"/>
	</g>
</g>
</svg>
